# xmcd
#
# Track frame offsets:
#	150
#	16576
#	29852
#	45753
#	63379
#	79801
#	97802
#	117153
#	133804
#	149330
#	161706
#	180382
#	195607
#	211058
#	230334
#	243835
#	258612
#	273613
#	285165
#
# Disc length: 3991 seconds
#
# Revision: 2
# Processed by: cddbd v1.5.2PL0 Copyright (c) Steve Scherf et al.
# Submitted via: audiograbber 1.83.01
#
DISCID=000f9513
DTITLE=Various Artist - Promo Only Country Series December 2006
DYEAR=2006
DGENRE=Country
TTITLE0=Blake Shelton - Don't Make Me
TTITLE1=George Strait - It Just Comes Natural
TTITLE2=Gary Allan - A Feelin' Like That
TTITLE3=Gretchen Wilson w. John Rich - Come To Bed
TTITLE4=Josh Gracin - I Keep Coming Back
TTITLE5=Rushlow Harris - Bag Pipes Cryin'
TTITLE6=Jason M. Carroll - Alyssa Lies
TTITLE7=Blue County - I Get To
TTITLE8=Mark Wills - Take It All Out On Me
TTITLE9=Donovan Chapman - House Like That
TTITLE10=Pat Green - Dixie Lullaby
TTITLE11=Ronnie Milsap w. Jyps - iYou Don't Know My Love
TTITLE12=Amy Dalley - Everybody's Got A Vice
TTITLE13=Darryl Worley - I Just Came Back (From A War)
TTITLE14=Danielle Peck - Isn't That Everything
TTITLE15=Little Texas - Your Woman
TTITLE16=Billy Ray Cyrus - I Want My Mullet Back
TTITLE17=Doo Wah Riders - Dear Beer
TTITLE18=Levi - Dancing In My Mind
EXTD=
EXTT0=
EXTT1=
EXTT2=
EXTT3=
EXTT4=
EXTT5=
EXTT6=
EXTT7=
EXTT8=
EXTT9=
EXTT10=
EXTT11=
EXTT12=
EXTT13=
EXTT14=
EXTT15=
EXTT16=
EXTT17=
EXTT18=
PLAYORDER=
